{"title":"la cosa HD rip","uid":7011856,"size":1940398620,"categoryP":"video","categoryS":"movies","magnet":"?xt=urn:btih:428c8e067c9359d931242a591a47878fd93efbb3&amp;dn=la+cosa+HD+rip&amp;tr=udp%3A%2F%2Ftracker.openbittorrent.com%3A80&amp;tr=udp%3A%2F%2Fopen.demonii.com%3A1337&amp;tr=udp%3A%2F%2Ftracker.coppersurfer.tk%3A6969&amp;tr=udp%3A%2F%2Fexodus.desync.com%3A6969","seeders":0,"leechers":0,"uploader":"resos","files":3,"time":1328496232,"description":"Format                                   : AVI\nFormat/Info                              : Audio Video Interleave\nFile size                                : 1.81 GiB\nDuration                                 : 1h 43mn\nOverall bit rate                         : 2 510 Kbps\nWriting application                      : VirtualDubMod 1.5.10.2 (build 2540/release)\nWriting library                          : VirtualDubMod build 2540/release\n\nVideo\nID                                       : 0\nFormat                                   : MPEG-4 Visual\nFormat profile                           : Advanced Simple@L5\nFormat settings, BVOP                    : 1\nFormat settings, QPel                    : No\nFormat settings, GMC                     : No warppoints\nFormat settings, Matrix                  : Custom\nCodec ID                                 : XVID\nCodec ID/Hint                            : XviD\nDuration                                 : 1h 43mn\nBit rate                                 : 2 121 Kbps\nWidth                                    : 720 pixels\nHeight                                   : 304 pixels\nDisplay aspect ratio                     : 2.35:1\nFrame rate                               : 23.976 fps\nColor space                              : YUV\nChroma subsampling                       : 4:2:0\nBit depth                                : 8 bits\nScan type                                : Progressive\nCompression mode                         : Lossy\nBits/(Pixel*Frame)                       : 0.404\nStream size                              : 1.53 GiB (85%)\nWriting library                          : XviD 64\n\nAudio\nID                                       : 1\nFormat                                   : AC-3\nFormat/Info                              : Audio Coding 3\nCodec ID                                 : 2000\nDuration                                 : 1h 43mn\nBit rate mode                            : Constant\nBit rate                                 : 384 Kbps\nChannel(s)                               : 6 channels\nSampling rate                            : 48.0 KHz\nCompression mode                         : Lossy\nStream size                              : 283 MiB (15%)\nAlignment                                : Split accross interleaves\nInterleave, duration                     : 5458 ms (130.86 video frames)","torrent":{"xt":"urn:btih:428c8e067c9359d931242a591a47878fd93efbb3","amp;dn":"la+cosa+HD+rip","amp;tr":["udp%3A%2F%2Ftracker.openbittorrent.com%3A80","udp%3A%2F%2Fopen.demonii.com%3A1337","udp%3A%2F%2Ftracker.coppersurfer.tk%3A6969","udp%3A%2F%2Fexodus.desync.com%3A6969"],"infoHash":"428c8e067c9359d931242a591a47878fd93efbb3","infoHashBuffer":{"type":"Buffer","data":[66,140,142,6,124,147,89,217,49,36,42,89,26,71,135,143,217,62,251,179]},"announce":[],"urlList":[]}}